<?xml version="1.0" standalone="no"?>
<!DOCTYPE svg PUBLIC "-//W3C//DTD SVG 20010904//EN"
 "http://www.w3.org/TR/2001/REC-SVG-20010904/DTD/svg10.dtd">
<svg version="1.0" xmlns="http://www.w3.org/2000/svg"
 width="200.000000pt" height="200.000000pt" viewBox="0 0 200.000000 200.000000"
 preserveAspectRatio="xMidYMid meet">

<g transform="translate(0.000000,200.000000) scale(0.100000,-0.100000)"
fill="#000000" stroke="none">
<path d="M22 1774 c-28 -20 -30 -69 -3 -84 11 -5 71 -10 134 -10 l114 0 126
-441 c125 -436 126 -442 110 -473 -9 -17 -17 -54 -17 -82 0 -41 5 -59 27 -88
40 -52 74 -66 164 -67 69 -1 75 -2 51 -12 -62 -28 -98 -82 -98 -149 0 -75 57
-139 137 -154 44 -8 121 30 150 75 25 37 31 107 12 144 -16 32 -61 77 -75 77
-7 0 -16 4 -19 10 -4 7 71 10 217 10 222 0 223 0 193 -19 -55 -34 -78 -67 -83
-121 -6 -61 10 -100 53 -139 46 -40 101 -48 158 -23 63 28 92 73 92 144 0 66
-21 101 -81 135 l-39 23 102 0 c98 0 103 1 119 25 15 23 15 27 0 50 l-16 25
-458 0 c-398 0 -460 2 -480 16 -24 16 -28 44 -12 75 10 18 26 19 479 19 387 0
471 2 480 14 6 7 61 186 121 396 113 395 113 394 75 422 -5 4 -312 8 -681 8
l-671 0 -24 87 c-33 124 -31 123 -197 123 -108 0 -142 -3 -160 -16z"/>
</g>
</svg>
