<?xml version="1.0" standalone="no"?>
<!DOCTYPE svg PUBLIC "-//W3C//DTD SVG 20010904//EN"
 "http://www.w3.org/TR/2001/REC-SVG-20010904/DTD/svg10.dtd">
<svg version="1.0" xmlns="http://www.w3.org/2000/svg"
 width="200.000000pt" height="200.000000pt" viewBox="0 0 200.000000 200.000000"
 preserveAspectRatio="xMidYMid meet">

<g transform="translate(0.000000,200.000000) scale(0.100000,-0.100000)"
fill="#000000" stroke="none">
<path d="M905 1625 c-231 -51 -418 -216 -492 -434 -25 -74 -28 -71 -12 13 13
61 2 120 -28 161 -14 19 -14 18 -8 -11 3 -18 -1 -72 -11 -120 -18 -100 -15
-175 10 -202 12 -14 16 -36 15 -88 l-1 -69 -8 51 c-11 77 -29 122 -62 160 -34
38 -56 46 -34 11 9 -12 24 -68 35 -124 21 -110 39 -154 73 -177 12 -9 30 -37
40 -63 24 -64 23 -67 -8 -13 -34 59 -61 88 -106 111 -50 25 -58 24 -27 -5 14
-13 47 -60 73 -105 48 -81 104 -141 132 -141 15 0 119 -106 119 -121 0 -5 9
-15 20 -24 18 -14 16 -14 -19 0 -45 18 -186 123 -186 139 0 14 84 -38 126 -76
25 -23 47 -39 50 -36 8 9 -100 96 -139 113 -20 8 -53 15 -74 15 l-38 -1 32
-14 c18 -7 68 -43 112 -78 79 -65 138 -94 167 -83 8 3 38 -8 67 -24 62 -35 60
-37 -13 -9 -41 16 -68 20 -107 16 -74 -8 -88 -20 -33 -28 25 -4 86 -22 137
-40 88 -31 94 -32 146 -19 40 9 67 10 103 2 l49 -10 -70 -1 c-74 -2 -138 -23
-165 -56 -14 -17 -13 -18 5 -10 11 5 77 11 146 15 113 5 130 8 165 31 22 14
71 33 109 43 249 61 443 256 501 501 20 88 15 267 -11 338 -23 64 -31 53 -10
-15 9 -29 19 -91 22 -138 17 -255 -129 -505 -362 -620 -126 -63 -160 -62 -280
8 -83 49 -94 53 -147 51 -53 -2 -60 0 -97 34 -24 21 -61 42 -87 49 -38 11 -48
18 -63 53 -16 37 -81 105 -100 105 -5 0 -11 24 -13 54 -3 37 -13 68 -31 95
-25 38 -26 43 -15 91 8 37 9 62 0 97 -10 45 -9 51 17 90 30 45 48 120 33 135
-6 6 -12 -2 -15 -19 -3 -16 -27 -53 -54 -83 -26 -31 -58 -69 -71 -85 l-23 -30
7 44 c17 114 80 242 166 336 103 112 241 183 413 210 64 10 71 13 35 13 -25 0
-72 -6 -105 -13z m-524 -467 c-6 -27 -11 -63 -11 -81 0 -24 -3 -28 -10 -17
-14 22 -12 64 7 165 l18 90 3 -54 c2 -29 -2 -76 -7 -103z m144 -8 c-9 -18 -33
-51 -54 -74 -20 -22 -47 -54 -59 -70 -32 -41 -28 -7 4 40 37 53 116 145 121
140 3 -2 -3 -19 -12 -36z m-180 -165 c8 -32 15 -70 15 -82 0 -13 7 -40 15 -60
15 -36 15 -36 -4 -19 -18 16 -35 75 -60 200 -13 71 13 40 34 -39z m104 -62
c-19 -56 -37 -103 -41 -103 -3 0 -9 26 -13 59 -7 65 2 92 52 152 24 28 28 30
32 14 2 -10 -12 -65 -30 -122z m37 -1 c-46 -144 -73 -198 -63 -127 8 60 71
225 75 197 2 -12 -3 -44 -12 -70z m13 -202 l0 -115 -20 38 c-19 37 -37 52 -25
21 3 -8 2 -13 -3 -10 -14 9 -5 128 13 171 25 60 36 29 35 -105z m-82 -28 c21
-38 39 -60 46 -55 7 3 9 3 5 -2 -4 -4 -3 -14 3 -22 9 -10 8 -13 -1 -13 -20 0
-62 52 -113 141 l-49 84 37 -35 c20 -19 52 -63 72 -98z m121 -22 c2 -96 1
-112 -10 -95 -8 12 -14 65 -16 135 -2 96 -1 112 10 95 8 -12 14 -65 16 -135z
m82 -120 c21 -57 38 -105 36 -107 -1 -1 -24 20 -51 47 -49 49 -49 51 -53 123
-4 66 -3 71 12 57 9 -9 34 -63 56 -120z m10 66 c11 -19 32 -67 45 -106 14 -40
30 -79 36 -86 8 -10 8 -14 1 -14 -17 0 -40 39 -71 120 -49 128 -52 151 -11 86z
m104 -119 c48 -51 138 -157 132 -157 -2 0 -31 11 -63 26 -62 26 -81 48 -108
123 -18 51 -5 53 39 8z m89 -45 c20 -21 35 -28 52 -24 17 3 47 -9 92 -36 38
-22 82 -47 98 -56 l30 -15 -60 -1 c-67 0 -101 17 -147 72 -15 18 -28 28 -28
22 0 -6 17 -27 37 -47 21 -22 30 -37 22 -37 -15 0 -179 167 -179 182 0 12 47
-22 83 -60z m146 -23 c17 -6 66 -31 108 -55 94 -54 66 -61 -35 -10 -117 60
-154 93 -73 65z m-239 -69 c47 -16 94 -30 105 -30 18 -1 19 -1 3 -11 -12 -7
-31 -6 -60 1 -52 13 -188 61 -188 66 0 12 66 0 140 -26z m354 -70 c-15 -15
-126 -31 -200 -28 -104 4 -58 22 74 29 64 3 121 6 127 7 5 1 4 -3 -1 -8z"/>
<path d="M1155 1629 c-10 -15 3 -25 16 -12 7 7 7 13 1 17 -6 3 -14 1 -17 -5z"/>
<path d="M1320 1570 c0 -5 5 -10 10 -10 6 0 10 5 10 10 0 6 -4 10 -10 10 -5 0
-10 -4 -10 -10z"/>
<path d="M1460 1480 c0 -5 7 -10 16 -10 8 0 12 5 9 10 -3 6 -10 10 -16 10 -5
0 -9 -4 -9 -10z"/>
<path d="M1580 1350 c0 -5 5 -10 10 -10 6 0 10 5 10 10 0 6 -4 10 -10 10 -5 0
-10 -4 -10 -10z"/>
<path d="M1069 1047 c14 -17 8 -67 -8 -67 -17 0 -33 30 -28 51 3 13 1 19 -6
16 -7 -2 -12 -21 -12 -43 -1 -30 -8 -46 -33 -71 -37 -36 -41 -64 -12 -93 25
-25 56 -25 97 0 26 15 34 17 40 6 4 -7 19 -17 32 -21 l24 -7 -20 26 -21 27 25
44 c13 25 20 45 14 45 -6 0 -11 -6 -11 -14 0 -8 -8 -24 -18 -37 l-19 -22 -26
38 c-27 39 -27 39 -7 60 26 28 25 51 -2 66 -21 11 -22 11 -9 -4z m-5 -138 c15
-22 26 -42 24 -44 -2 -1 -13 -8 -26 -14 -30 -16 -56 -7 -71 25 -9 22 -9 31 4
50 22 34 38 30 69 -17z"/>
<path d="M620 1042 c0 -4 4 -12 9 -17 5 -6 20 -46 35 -90 33 -101 41 -115 51
-86 4 15 -4 54 -25 112 -25 69 -37 89 -51 89 -11 0 -19 -4 -19 -8z"/>
<path d="M779 1043 c-1 -18 2 -208 4 -209 1 -1 16 -4 32 -8 27 -7 28 -6 12 6
-16 12 -18 26 -15 116 3 92 1 102 -14 102 -10 0 -18 -3 -19 -7z"/>
<path d="M1330 1042 c0 -4 4 -12 8 -17 5 -6 21 -48 37 -95 32 -97 40 -111 50
-81 10 32 -55 201 -77 201 -10 0 -18 -4 -18 -8z"/>
<path d="M1484 1028 c3 -13 6 -62 6 -109 0 -85 1 -87 25 -91 20 -4 23 -2 14 8
-6 8 -9 51 -7 113 3 100 3 101 -21 101 -19 0 -22 -4 -17 -22z"/>
<path d="M731 914 c0 -11 3 -14 6 -6 3 7 2 16 -1 19 -3 4 -6 -2 -5 -13z"/>
<path d="M1315 830 c-3 -6 1 -7 9 -4 18 7 21 14 7 14 -6 0 -13 -4 -16 -10z"/>
</g>
</svg>
